<svg xmlns="http://www.w3.org/2000/svg" version="1.1" xmlns:xlink="http://www.w3.org/1999/xlink" xmlns:svgjs="http://svgjs.dev/svgjs" width="1000" height="999" viewBox="0 0 1000 999"><g transform="matrix(1,0,0,1,-0.2157434402332683,-0.21552769679306039)"><svg viewBox="0 0 343 343" data-background-color="#ffffff" preserveAspectRatio="xMidYMid meet" height="999" width="1000" xmlns="http://www.w3.org/2000/svg" xmlns:xlink="http://www.w3.org/1999/xlink"><g id="tight-bounds" transform="matrix(1,0,0,1,0.07400000000001228,0.07400000000001228)"><svg viewBox="0 0 342.8515585177538 342.8515585177538" height="342.8515585177538" width="342.8515585177538"><g><svg></svg></g><g><svg viewBox="0 0 342.8515585177538 342.8515585177538" height="342.8515585177538" width="342.8515585177538"><g><path d="M0 171.426c0-94.676 76.75-171.426 171.426-171.426 94.676 0 171.426 76.75 171.426 171.426 0 94.676-76.75 171.426-171.426 171.426-94.676 0-171.426-76.75-171.426-171.426zM171.426 338.003c91.998 0 166.577-74.579 166.577-166.577 0-91.998-74.579-166.577-166.577-166.577-91.998 0-166.577 74.579-166.577 166.577 0 91.998 74.579 166.577 166.577 166.577z" data-fill-palette-color="tertiary" fill="#636365" stroke="transparent"></path><ellipse rx="164.56874808852183" ry="164.56874808852183" cx="171.4257792588769" cy="171.4257792588769" fill="#636365" stroke="transparent" stroke-width="0" fill-opacity="1" data-fill-palette-color="tertiary"></ellipse></g><g transform="matrix(1,0,0,1,64.84655864529836,101.0431740444334)"><svg viewBox="0 0 213.15844122715708 140.765210428887" height="140.765210428887" width="213.15844122715708"><g><svg viewBox="0 0 213.15844122715708 140.765210428887" height="140.765210428887" width="213.15844122715708"><g><svg viewBox="0 0 213.15844122715714 140.76521042888703" height="140.765210428887" width="213.15844122715708"><g transform="matrix(1,0,0,1,0,86.9985472652176)"><svg viewBox="0 0 213.15844122715714 53.76666316366944" height="53.76666316366944" width="213.15844122715714"><g id="textblocktransform"><svg viewBox="0 0 213.15844122715714 53.76666316366944" height="53.76666316366944" width="213.15844122715714" id="textblock"><g><svg viewBox="0 0 213.15844122715714 53.76666316366944" height="53.76666316366944" width="213.15844122715714"><g transform="matrix(1,0,0,1,0,0)"><svg width="213.15844122715714" viewBox="2.049999952316284 -36.70000076293945 189.87998962402344 47.900001525878906" height="53.76666316366944" data-palette-color="#1d1b1b"><path d="M11.85-0.95L11.85-0.95Q8.9 0.35 4.65 0.35L4.65 0.35Q3.2 0.35 2.05 0.1L2.05 0.1Q2.05-3.2 4.88-14.78 7.7-26.35 7.7-29.35L7.7-29.35Q7.7-30.55 5.9-32.55L5.9-32.55 5.35-33.2 5.5-34.3Q12.3-35.5 20.6-35.5L20.6-35.5Q25.6-35.5 28.5-33.58 31.4-31.65 31.4-27.98 31.4-24.3 29.4-21.28 27.4-18.25 23.7-16.55L23.7-16.55Q25.35-10.95 26.85-7.8 28.35-4.65 29.3-4.65L29.3-4.65Q30.1-4.65 31.8-5.25L31.8-5.25 32.4-5.45 33.6-2.75Q29.2 0.6 24.33 0.6 19.45 0.6 17.95-4.3L17.95-4.3Q16.65-8.6 15.85-14.95L15.85-14.95 14.1-14.95Q11.85-4.45 11.85-0.95ZM16.15-19.3L16.15-19.3Q17.75-19.3 18.93-20.3 20.1-21.3 20.7-22.9L20.7-22.9Q21.8-26.05 21.8-29 21.8-31.95 19.15-31.95L19.15-31.95Q18.35-31.95 17.55-31.8L17.55-31.8Q17.5-30.25 15.1-19.4L15.1-19.4Q15.45-19.3 16.15-19.3ZM46-18.78Q46-16.55 44.75-11.93 43.5-7.3 43.5-5.9 43.5-4.5 44.05-4.5 44.6-4.5 46.05-5L46.05-5 46.5-5.2 47.4-2.7Q45.7-1.4 43.17-0.4 40.65 0.6 38.6 0.6 36.55 0.6 35.37-0.55 34.2-1.7 34.2-3.88 34.2-6.05 35.42-10.53 36.65-15 36.65-16.2L36.65-16.2Q36.65-18.05 35.35-19.7L35.35-19.7 34.95-20.25 35.1-21.1Q37.7-21.9 45.2-21.9L45.2-21.9Q46-21 46-18.78ZM42.27-25.8Q40-25.8 38.72-27 37.45-28.2 37.45-30.08 37.45-31.95 39.02-33.23 40.6-34.5 42.85-34.5 45.1-34.5 46.35-33.45 47.6-32.4 47.6-30.5 47.6-28.6 46.07-27.2 44.55-25.8 42.27-25.8ZM66.15-17.7L66.15-17.7 61.85-18.05Q59.85-9.1 59.67-7.65 59.5-6.2 59.5-5.28 59.5-4.35 60.1-4.35L60.1-4.35Q60.8-4.35 62.75-5.25L62.75-5.25 63.95-2.85Q62.35-1.4 59.9-0.4 57.45 0.6 55.17 0.6 52.9 0.6 51.55-0.58 50.2-1.75 50.2-3.9 50.2-6.05 51.45-10.8 52.7-15.55 53.1-17.85L53.1-17.85Q51.9-17.75 49.55-17.5L49.55-17.5Q49.35-18.55 49.35-19.48 49.35-20.4 49.6-21.55L49.6-21.55 53.6-21.55Q53.65-22.2 53.65-25.9L53.65-25.9 53.55-27.95Q58.4-29.55 62.8-29.55L62.8-29.55Q63.15-28.75 63.15-26.78 63.15-24.8 62.5-21.55L62.5-21.55 67-21.55Q67-19.5 66.15-17.7ZM77.89-18.78Q77.89-16.55 76.64-11.93 75.39-7.3 75.39-5.9 75.39-4.5 75.94-4.5 76.49-4.5 77.94-5L77.94-5 78.39-5.2 79.29-2.7Q77.59-1.4 75.07-0.4 72.54 0.6 70.49 0.6 68.44 0.6 67.27-0.55 66.09-1.7 66.09-3.88 66.09-6.05 67.32-10.53 68.54-15 68.54-16.2L68.54-16.2Q68.54-18.05 67.24-19.7L67.24-19.7 66.84-20.25 66.99-21.1Q69.59-21.9 77.09-21.9L77.09-21.9Q77.89-21 77.89-18.78ZM74.17-25.8Q71.89-25.8 70.62-27 69.34-28.2 69.34-30.08 69.34-31.95 70.92-33.23 72.49-34.5 74.74-34.5 76.99-34.5 78.24-33.45 79.49-32.4 79.49-30.5 79.49-28.6 77.97-27.2 76.44-25.8 74.17-25.8ZM86.59-33.05L86.59-33.05Q86.59-34.35 86.34-35.35L86.34-35.35Q91.29-36.7 95.34-36.7L95.34-36.7Q95.84-36.1 95.84-34.05L95.84-34.05Q95.84-30.4 93.59-20.05L93.59-20.05Q97.59-22.15 100.67-22.15 103.74-22.15 105.37-20.9 106.99-19.65 106.99-17.4L106.99-17.4Q106.99-13.05 100.54-11.2L100.54-11.2Q102.14-4.3 103.64-4.3L103.64-4.3 106.04-4.95 107.14-2.5Q105.89-1.5 103.29-0.45 100.69 0.6 98.29 0.6 95.89 0.6 94.64-1.2 93.39-3 93.04-5.9 92.69-8.8 92.69-12.4L92.69-12.4Q95.09-13 96.49-14.13 97.89-15.25 97.89-16.38 97.89-17.5 96.69-17.5L96.69-17.5Q95.74-17.5 94.47-16.95 93.19-16.4 92.59-15.9L92.59-15.9Q89.89-4.5 89.89-0.65L89.89-0.65Q86.04 0.2 80.74 0.2L80.74 0.2Q80.69-0.2 80.69-0.75L80.69-0.75Q80.69-3.35 83.64-15.98 86.59-28.6 86.59-33.05ZM128.84-0.95L128.84-0.95Q125.89 0.35 121.64 0.35L121.64 0.35Q120.19 0.35 119.04 0.1L119.04 0.1Q119.04-3.2 121.86-14.78 124.69-26.35 124.69-29.35L124.69-29.35Q124.69-30.55 122.89-32.55L122.89-32.55 122.34-33.2 122.49-34.3Q129.29-35.5 137.59-35.5L137.59-35.5Q142.59-35.5 145.49-33.58 148.39-31.65 148.39-27.98 148.39-24.3 146.39-21.28 144.39-18.25 140.69-16.55L140.69-16.55Q142.34-10.95 143.84-7.8 145.34-4.65 146.29-4.65L146.29-4.65Q147.09-4.65 148.79-5.25L148.79-5.25 149.39-5.45 150.59-2.75Q146.19 0.6 141.31 0.6 136.44 0.6 134.94-4.3L134.94-4.3Q133.64-8.6 132.84-14.95L132.84-14.95 131.09-14.95Q128.84-4.45 128.84-0.95ZM133.14-19.3L133.14-19.3Q134.74-19.3 135.91-20.3 137.09-21.3 137.69-22.9L137.69-22.9Q138.79-26.05 138.79-29 138.79-31.95 136.14-31.95L136.14-31.95Q135.34-31.95 134.54-31.8L134.54-31.8Q134.49-30.25 132.09-19.4L132.09-19.4Q132.44-19.3 133.14-19.3ZM175.43-20.25Q174.38-17 173.63-12.53 172.88-8.05 172.88-6.28 172.88-4.5 173.43-4.5L173.43-4.5 175.93-5.2 176.83-2.7Q175.23-1.45 172.76-0.43 170.28 0.6 168.38 0.6L168.38 0.6Q165.13 0.6 164.28-2.2L164.28-2.2Q160.33 0.6 157.31 0.6 154.28 0.6 152.63-1.6 150.98-3.8 150.98-7.9L150.98-7.9Q150.98-13.55 153.88-17.85 156.78-22.15 161.53-22.15L161.53-22.15Q164.13-22.15 166.83-20.7L166.83-20.7Q167.23-21.6 167.48-22L167.48-22Q171.08-22 175.43-20.25L175.43-20.25ZM160.38-8.53Q160.38-6 160.73-5.35 161.08-4.7 162.03-4.7 162.98-4.7 163.88-5.45L163.88-5.45Q164.08-11.25 165.78-17.6L165.78-17.6Q165.03-18.05 164.06-18.05 163.08-18.05 162.31-16.95 161.53-15.85 161.13-14.2L161.13-14.2Q160.38-11.05 160.38-8.53ZM176.73 11.2L176.73 11.2Q172.38 11.2 168.98 7.7L168.98 7.7 170.33 5.55Q171.93 6.5 173.68 6.5 175.43 6.5 176.68 4.17 177.93 1.85 179.23-5.48 180.53-12.8 180.53-16.3L180.53-16.3Q180.53-17.05 180.03-18.03 179.53-19 179.03-19.6L179.03-19.6 178.53-20.2 178.63-21Q182.23-21.9 189.13-21.9L189.13-21.9Q189.88-21.05 189.88-18.57 189.88-16.1 188.98-10.35 188.08-4.6 186.98-0.35L186.98-0.35Q183.93 11.2 176.73 11.2ZM186.61-25.8Q184.33-25.8 183.06-27 181.78-28.2 181.78-30.08 181.78-31.95 183.36-33.23 184.93-34.5 187.18-34.5 189.43-34.5 190.68-33.45 191.93-32.4 191.93-30.5 191.93-28.6 190.41-27.2 188.88-25.8 186.61-25.8Z" opacity="1" transform="matrix(1,0,0,1,0,0)" fill="#1d1b1b" class="undefined-text-0" data-fill-palette-color="quaternary" id="text-0"></path></svg></g></svg></g></svg></g></svg></g><g transform="matrix(1,0,0,1,77.83105930734358,0)"><svg viewBox="0 0 57.496322612469974 74.30552849219117" height="74.30552849219117" width="57.496322612469974"><g><svg xmlns="http://www.w3.org/2000/svg" xmlns:xlink="http://www.w3.org/1999/xlink" version="1.1" x="0" y="0" viewBox="12.982999801635742 1 75.68599700927734 97.81300354003906" enable-background="new 0 0 100 100" xml:space="preserve" height="74.30552849219117" width="57.496322612469974" class="icon-icon-0" data-fill-palette-color="quaternary" id="icon-0"><g fill="#1d1b1b" data-fill-palette-color="quaternary"><polygon fill-rule="evenodd" clip-rule="evenodd" points="12.983,10.59 30.001,98.813 24.129,39.764 53.15,37.872 53.096,27.989    64.549,1 53.622,18.977  " fill="#1d1b1b" data-fill-palette-color="quaternary"></polygon><polygon fill-rule="evenodd" clip-rule="evenodd" points="59.389,54.548 64.549,1.007 55.809,40.723 36.197,41.768 37.767,62.23    30.001,98.813 42.058,58.914  " fill="#1d1b1b" data-fill-palette-color="quaternary"></polygon><polygon fill-rule="evenodd" clip-rule="evenodd" points="62.8,67.182 63.349,56.729 47.37,60.484 47.338,72.281 30.001,98.813    51.681,71.197  " fill="#1d1b1b" data-fill-palette-color="quaternary"></polygon><polygon fill-rule="evenodd" clip-rule="evenodd" points="65.711,62.394 80.552,57.663 82.061,45.131 66.162,47.226  " fill="#1d1b1b" data-fill-palette-color="quaternary"></polygon><polygon fill-rule="evenodd" clip-rule="evenodd" points="72.07,44.502 83.058,43.085 84.639,32.807 76.56,32.434 64.549,1    72.979,31.967  " fill="#1d1b1b" data-fill-palette-color="quaternary"></polygon><polygon fill-rule="evenodd" clip-rule="evenodd" points="87.413,31.294 88.669,21.788 79.125,19.094 64.549,1 79.032,23.437    78.61,30.437  " fill="#1d1b1b" data-fill-palette-color="quaternary"></polygon></g></svg></g></svg></g><g></g></svg></g></svg></g></svg></g></svg></g><defs></defs></svg><rect width="342.8515585177538" height="342.8515585177538" fill="none" stroke="none" visibility="hidden"></rect></g></svg></g></svg>